<svg xmlns:xlink="http://www.w3.org/1999/xlink" width="75ex" height="6.843ex" style="font-size: 15px; vertical-align: -3.005ex; max-width: 450;" viewBox="0 -1652.5 32291.5 2946.1" role="img" focusable="false" xmlns="http://www.w3.org/2000/svg">
<defs>
<path stroke-width="1" id="E1-MJAMS-45" d="M12 666Q12 675 24 683H582Q590 680 593 672V588Q593 514 591 502T575 490Q567 490 563 495T555 517Q552 556 517 590Q486 623 445 634T340 648H282Q266 636 264 620T260 492V370H277Q329 375 358 391T404 439Q420 480 420 506Q420 529 436 529Q445 529 451 521Q455 517 455 361Q455 333 455 298T456 253Q456 217 453 207T437 197Q420 196 420 217Q420 240 406 270Q377 328 284 335H260V201Q261 174 261 134Q262 73 264 61T278 38Q281 36 282 35H331Q400 35 449 50Q571 93 602 179Q605 203 622 203Q629 203 634 197T640 183Q638 181 624 95T604 3L600 -1H24Q12 5 12 16Q12 35 51 35Q92 38 97 52Q102 60 102 341T97 632Q91 645 51 648Q12 648 12 666ZM137 341Q137 131 136 89T130 37Q129 36 129 35H235Q233 41 231 48L226 61V623L231 635L235 648H129Q132 641 133 638T135 603T137 517T137 341ZM557 603V648H504Q504 646 515 639Q527 634 542 619L557 603ZM420 317V397L406 383Q394 370 380 363L366 355Q373 350 382 346Q400 333 409 328L420 317ZM582 61L586 88Q585 88 582 83Q557 61 526 46L511 37L542 35H577Q577 36 578 39T580 49T582 61Z"></path>
<path stroke-width="1" id="E1-MJMATHBI-4E" d="M258 624H235Q214 624 209 626T199 639Q203 678 216 684Q220 686 344 686H434Q464 686 477 680Q480 677 607 454Q738 227 739 227Q742 227 789 418T836 618Q836 620 835 620L821 622Q811 622 779 624Q755 624 749 625T740 632Q737 635 737 644Q737 656 742 669T754 685Q755 685 757 685T763 686Q768 686 803 685T890 684Q925 684 951 684T990 685T1006 686Q1014 686 1016 684Q1027 679 1027 668Q1023 632 1011 626Q1007 624 978 624Q912 622 907 617Q907 616 831 314T753 8Q749 0 723 0H712Q699 0 692 7Q692 8 671 44T607 155T526 296L361 580L296 323Q234 74 234 68T302 62H307Q334 62 334 44Q330 6 317 2L313 0L280 1Q260 2 181 2Q125 2 96 1T63 0Q48 0 43 15Q43 19 47 35Q52 55 57 58T94 62Q147 64 164 69L233 345Q302 619 302 622Q302 624 258 624Z"></path>
<path stroke-width="1" id="E1-MJMAIN-28" d="M94 250Q94 319 104 381T127 488T164 576T202 643T244 695T277 729T302 750H315H319Q333 750 333 741Q333 738 316 720T275 667T226 581T184 443T167 250T184 58T225 -81T274 -167T316 -220T333 -241Q333 -250 318 -250H315H302L274 -226Q180 -141 137 -14T94 250Z"></path>
<path stroke-width="1" id="E1-MJMAIN-31" d="M213 578L200 573Q186 568 160 563T102 556H83V602H102Q149 604 189 617T245 641T273 663Q275 666 285 666Q294 666 302 660V361L303 61Q310 54 315 52T339 48T401 46H427V0H416Q395 3 257 3Q121 3 100 0H88V46H114Q136 46 152 46T177 47T193 50T201 52T207 57T213 61V578Z"></path>
<path stroke-width="1" id="E1-MJMAIN-32" d="M109 429Q82 429 66 447T50 491Q50 562 103 614T235 666Q326 666 387 610T449 465Q449 422 429 383T381 315T301 241Q265 210 201 149L142 93L218 92Q375 92 385 97Q392 99 409 186V189H449V186Q448 183 436 95T421 3V0H50V19V31Q50 38 56 46T86 81Q115 113 136 137Q145 147 170 174T204 211T233 244T261 278T284 308T305 340T320 369T333 401T340 431T343 464Q343 527 309 573T212 619Q179 619 154 602T119 569T109 550Q109 549 114 549Q132 549 151 535T170 489Q170 464 154 447T109 429Z"></path>
<path stroke-width="1" id="E1-MJMAIN-2225" d="M133 736Q138 750 153 750Q164 750 170 739Q172 735 172 250T170 -239Q164 -250 152 -250Q144 -250 138 -244L137 -243Q133 -241 133 -179T132 250Q132 731 133 736ZM329 739Q334 750 346 750Q353 750 361 744L362 743Q366 741 366 679T367 250T367 -178T362 -243L361 -244Q355 -250 347 -250Q335 -250 329 -239Q327 -235 327 250T329 739Z"></path>
<path stroke-width="1" id="E1-MJMATHBI-41" d="M65 0Q45 0 45 18Q48 52 61 60Q65 62 81 62Q155 62 165 74Q166 74 265 228T465 539T569 699Q576 707 583 709T611 711T637 710T649 700Q650 697 695 380L741 63L784 62H827Q839 50 839 45L835 29Q831 9 827 5T806 0Q803 0 790 0T743 1T657 2Q585 2 547 1T504 0Q481 0 481 17Q484 54 497 60Q501 62 541 62Q580 62 580 63Q580 68 573 121T564 179V181H308L271 124Q236 69 236 67T283 62H287Q316 62 316 46Q316 26 307 8Q302 3 295 0L262 1Q242 2 168 2Q119 2 93 1T65 0ZM537 372Q533 402 528 435T521 486T518 504V505Q517 505 433 375L348 244L451 243Q555 243 555 244L537 372Z"></path>
<path stroke-width="1" id="E1-MJMAIN-2B" d="M56 237T56 250T70 270H369V420L370 570Q380 583 389 583Q402 583 409 568V270H707Q722 262 722 250T707 230H409V-68Q401 -82 391 -82H389H387Q375 -82 369 -68V230H70Q56 237 56 250Z"></path>
<path stroke-width="1" id="E1-MJMAIN-29" d="M60 749L64 750Q69 750 74 750H86L114 726Q208 641 251 514T294 250Q294 182 284 119T261 12T224 -76T186 -143T145 -194T113 -227T90 -246Q87 -249 86 -250H74Q66 -250 63 -250T58 -247T55 -238Q56 -237 66 -225Q221 -64 221 250T66 725Q56 737 55 738Q55 746 60 749Z"></path>
<path stroke-width="1" id="E1-MJMATHBI-57" d="M111 624Q109 624 102 624T91 623Q61 623 61 640Q61 660 70 678Q78 686 98 686Q140 684 239 684Q277 684 309 684T360 685T383 686H385Q407 686 407 668Q404 634 391 626Q387 624 348 624Q307 624 307 622Q307 618 332 409Q359 198 359 195L570 532L564 576L558 622V624H522H504Q472 624 472 641Q475 678 488 684L493 686L529 685Q551 684 645 684Q716 684 753 685T795 686Q818 686 818 669Q815 632 802 626Q798 624 759 624Q718 624 718 622Q718 615 743 410Q770 199 770 196Q770 195 806 253T903 406Q1035 618 1035 619Q1025 624 968 624Q943 624 943 641Q943 648 946 659Q950 675 952 679T963 686L998 685Q1020 684 1093 684Q1113 684 1139 685T1173 686Q1207 686 1207 669Q1207 664 1204 652Q1199 631 1194 628T1164 624Q1113 622 1101 615Q1098 612 905 305Q715 -1 709 -7Q699 -17 673 -17Q645 -17 639 -8L581 441Q581 444 442 221Q331 44 314 18T288 -14Q279 -17 263 -17H254Q229 -17 227 -5Q225 2 186 311L147 620V624H111Z"></path>
<path stroke-width="1" id="E1-MJMAIN-2212" d="M84 237T84 250T98 270H679Q694 262 694 250T679 230H98Q84 237 84 250Z"></path>
<path stroke-width="1" id="E1-MJMAIN-3D" d="M56 347Q56 360 70 367H707Q722 359 722 347Q722 336 708 328L390 327H72Q56 332 56 347ZM56 153Q56 168 72 173H708Q722 163 722 153Q722 140 707 133H70Q56 140 56 153Z"></path>
<path stroke-width="1" id="E1-MJMATHI-6E" d="M21 287Q22 293 24 303T36 341T56 388T89 425T135 442Q171 442 195 424T225 390T231 369Q231 367 232 367L243 378Q304 442 382 442Q436 442 469 415T503 336T465 179T427 52Q427 26 444 26Q450 26 453 27Q482 32 505 65T540 145Q542 153 560 153Q580 153 580 145Q580 144 576 130Q568 101 554 73T508 17T439 -10Q392 -10 371 17T350 73Q350 92 386 193T423 345Q423 404 379 404H374Q288 404 229 303L222 291L189 157Q156 26 151 16Q138 -11 108 -11Q95 -11 87 -5T76 7T74 17Q74 30 112 180T152 343Q153 348 153 366Q153 405 129 405Q91 405 66 305Q60 285 60 284Q58 278 41 278H27Q21 284 21 287Z"></path>
<path stroke-width="1" id="E1-MJMATHI-3C3" d="M184 -11Q116 -11 74 34T31 147Q31 247 104 333T274 430Q275 431 414 431H552Q553 430 555 429T559 427T562 425T565 422T567 420T569 416T570 412T571 407T572 401Q572 357 507 357Q500 357 490 357T476 358H416L421 348Q439 310 439 263Q439 153 359 71T184 -11ZM361 278Q361 358 276 358Q152 358 115 184Q114 180 114 178Q106 141 106 117Q106 67 131 47T188 26Q242 26 287 73Q316 103 334 153T356 233T361 278Z"></path>
</defs>
<g stroke="currentColor" fill="currentColor" stroke-width="0" transform="matrix(1 0 0 -1 0 0)">
<g transform="translate(3406,0)">
 <use xlink:href="#E1-MJAMS-45" x="0" y="0"></use>
 <use transform="scale(0.707)" xlink:href="#E1-MJMATHBI-4E" x="943" y="-213"></use>
 <use xlink:href="#E1-MJMAIN-28" x="1494" y="0"></use>
<g transform="translate(1883,0)">
<g transform="translate(120,0)">
<rect stroke="none" width="620" height="60" x="0" y="220"></rect>
 <use xlink:href="#E1-MJMAIN-31" x="60" y="676"></use>
 <use xlink:href="#E1-MJMAIN-32" x="60" y="-687"></use>
</g>
</g>
 <use xlink:href="#E1-MJMAIN-2225" x="2744" y="0"></use>
 <use xlink:href="#E1-MJMAIN-28" x="3244" y="0"></use>
 <use xlink:href="#E1-MJMATHBI-41" x="3634" y="0"></use>
 <use xlink:href="#E1-MJMAIN-2B" x="4725" y="0"></use>
 <use xlink:href="#E1-MJMATHBI-4E" x="5726" y="0"></use>
 <use xlink:href="#E1-MJMAIN-29" x="6753" y="0"></use>
 <use xlink:href="#E1-MJMATHBI-57" x="7143" y="0"></use>
 <use xlink:href="#E1-MJMAIN-2212" x="8573" y="0"></use>
 <use xlink:href="#E1-MJMATHBI-41" x="9573" y="0"></use>
<g transform="translate(10443,0)">
 <use xlink:href="#E1-MJMAIN-2225" x="0" y="0"></use>
 <use transform="scale(0.707)" xlink:href="#E1-MJMAIN-32" x="707" y="488"></use>
 <use transform="scale(0.707)" xlink:href="#E1-MJMAIN-32" x="707" y="-435"></use>
</g>
 <use xlink:href="#E1-MJMAIN-29" x="11397" y="0"></use>
 <use xlink:href="#E1-MJMAIN-3D" x="12065" y="0"></use>
<g transform="translate(12843,0)">
<g transform="translate(397,0)">
<rect stroke="none" width="620" height="60" x="0" y="220"></rect>
 <use xlink:href="#E1-MJMAIN-31" x="60" y="676"></use>
 <use xlink:href="#E1-MJMAIN-32" x="60" y="-687"></use>
</g>
</g>
 <use xlink:href="#E1-MJMAIN-2225" x="13981" y="0"></use>
 <use xlink:href="#E1-MJMATHBI-41" x="14482" y="0"></use>
 <use xlink:href="#E1-MJMATHBI-57" x="15351" y="0"></use>
 <use xlink:href="#E1-MJMAIN-2212" x="16781" y="0"></use>
 <use xlink:href="#E1-MJMATHBI-41" x="17782" y="0"></use>
<g transform="translate(18651,0)">
 <use xlink:href="#E1-MJMAIN-2225" x="0" y="0"></use>
 <use transform="scale(0.707)" xlink:href="#E1-MJMAIN-32" x="707" y="488"></use>
 <use transform="scale(0.707)" xlink:href="#E1-MJMAIN-32" x="707" y="-435"></use>
</g>
 <use xlink:href="#E1-MJMAIN-2B" x="19828" y="0"></use>
<g transform="translate(20606,0)">
<g transform="translate(342,0)">
<rect stroke="none" width="1747" height="60" x="0" y="220"></rect>
<g transform="translate(60,676)">
 <use xlink:href="#E1-MJMATHI-6E" x="0" y="0"></use>
<g transform="translate(600,0)">
 <use xlink:href="#E1-MJMATHI-3C3" x="0" y="0"></use>
 <use transform="scale(0.707)" xlink:href="#E1-MJMAIN-32" x="810" y="513"></use>
</g>
</g>
 <use xlink:href="#E1-MJMAIN-32" x="623" y="-687"></use>
</g>
</g>
 <use xlink:href="#E1-MJMAIN-2225" x="22816" y="0"></use>
 <use xlink:href="#E1-MJMATHBI-57" x="23316" y="0"></use>
<g transform="translate(24524,0)">
 <use xlink:href="#E1-MJMAIN-2225" x="0" y="0"></use>
 <use transform="scale(0.707)" xlink:href="#E1-MJMAIN-32" x="707" y="488"></use>
 <use transform="scale(0.707)" xlink:href="#E1-MJMAIN-32" x="707" y="-435"></use>
</g>
</g>
</g>
</svg>